<svg width="485" height="291" viewBox="0 0 485 291" fill="none" xmlns="http://www.w3.org/2000/svg">
<path d="M226.034 168.836H218.72C218.352 168.836 218.055 169.133 218.055 169.501V211.439C218.055 211.806 218.352 212.104 218.72 212.104H226.034C226.401 212.104 226.699 211.806 226.699 211.439V169.501C226.699 169.133 226.401 168.836 226.034 168.836Z" fill="url(#paint0_linear_5_33526)"/>
<path d="M222.377 168.836V161.992" stroke="#13E874" stroke-width="0.49" stroke-linecap="round" stroke-linejoin="round"/>
<path d="M222.377 218.965V212.104" stroke="#66FCA5" stroke-width="0.49" stroke-linecap="round" stroke-linejoin="round"/>
<path d="M238.073 147.062H230.759C230.391 147.062 230.094 147.359 230.094 147.727V177.92C230.094 178.287 230.391 178.585 230.759 178.585H238.073C238.441 178.585 238.738 178.287 238.738 177.92V147.727C238.738 147.359 238.441 147.062 238.073 147.062Z" fill="url(#paint1_linear_5_33526)"/>
<path d="M234.416 147.062V134.214" stroke="#13E874" stroke-width="0.49" stroke-linecap="round" stroke-linejoin="round"/>
<path d="M234.416 185.429V178.585" stroke="#66FCA5" stroke-width="0.49" stroke-linecap="round" stroke-linejoin="round"/>
<path d="M334.423 141.951H327.108C326.741 141.951 326.443 142.248 326.443 142.616V172.809C326.443 173.176 326.741 173.474 327.108 173.474H334.423C334.79 173.474 335.088 173.176 335.088 172.809V142.616C335.088 142.248 334.79 141.951 334.423 141.951Z" fill="url(#paint2_linear_5_33526)"/>
<path d="M330.765 141.951V133.357" stroke="#13E874" stroke-width="0.49" stroke-linecap="round" stroke-linejoin="round"/>
<path d="M330.765 180.318V173.474" stroke="#66FCA5" stroke-width="0.49" stroke-linecap="round" stroke-linejoin="round"/>
<path d="M345.937 109.01H338.622C338.255 109.01 337.957 109.307 337.957 109.675V139.868C337.957 140.235 338.255 140.533 338.622 140.533H345.937C346.304 140.533 346.602 140.235 346.602 139.868V109.675C346.602 109.307 346.304 109.01 345.937 109.01Z" fill="url(#paint3_linear_5_33526)"/>
<path d="M342.28 109.01V100.398" stroke="#13E874" stroke-width="0.49" stroke-linecap="round" stroke-linejoin="round"/>
<path d="M342.28 147.377V140.515" stroke="#66FCA5" stroke-width="0.49" stroke-linecap="round" stroke-linejoin="round"/>
<path d="M250.113 145.469H242.798C242.431 145.469 242.133 145.767 242.133 146.134V148.917C242.133 149.284 242.431 149.582 242.798 149.582H250.113C250.48 149.582 250.778 149.284 250.778 148.917V146.134C250.778 145.767 250.48 145.469 250.113 145.469Z" fill="url(#paint4_linear_5_33526)"/>
<path d="M246.455 145.469V132.639" stroke="#13E874" stroke-width="0.49" stroke-linecap="round" stroke-linejoin="round"/>
<path d="M246.455 156.443V149.582" stroke="#66FCA5" stroke-width="0.49" stroke-linecap="round" stroke-linejoin="round"/>
<path d="M262.152 149.757H254.837C254.47 149.757 254.172 150.055 254.172 150.422V170.726C254.172 171.093 254.47 171.391 254.837 171.391H262.152C262.519 171.391 262.817 171.093 262.817 170.726V150.422C262.817 150.055 262.519 149.757 262.152 149.757Z" fill="url(#paint5_linear_5_33526)"/>
<path d="M258.512 149.757V147.062" stroke="#F05E56" stroke-width="0.49" stroke-linecap="round" stroke-linejoin="round"/>
<path d="M258.512 174.822V171.409" stroke="#FF8691" stroke-width="0.49" stroke-linecap="round" stroke-linejoin="round"/>
<path d="M454.85 121.542H447.536C447.169 121.542 446.871 121.84 446.871 122.207V142.511C446.871 142.878 447.169 143.176 447.536 143.176H454.85C455.218 143.176 455.515 142.878 455.515 142.511V122.207C455.515 121.84 455.218 121.542 454.85 121.542Z" fill="url(#paint6_linear_5_33526)"/>
<path d="M451.193 121.542V118.846" stroke="#F05E56" stroke-width="0.49" stroke-linecap="round" stroke-linejoin="round"/>
<path d="M451.193 146.607V143.176" stroke="#FF8691" stroke-width="0.49" stroke-linecap="round" stroke-linejoin="round"/>
<path d="M69.4709 281.154H62.1563C61.789 281.154 61.4913 281.452 61.4913 281.819V302.123C61.4913 302.49 61.789 302.788 62.1563 302.788H69.4709C69.8381 302.788 70.1358 302.49 70.1358 302.123V281.819C70.1358 281.452 69.8381 281.154 69.4709 281.154Z" fill="url(#paint7_linear_5_33526)"/>
<path d="M65.8136 281.154V278.458" stroke="#13E874" stroke-width="0.49" stroke-linecap="round" stroke-linejoin="round"/>
<path d="M105.606 229.957H98.2917C97.9244 229.957 97.6267 230.255 97.6267 230.622V250.926C97.6267 251.293 97.9244 251.591 98.2917 251.591H105.606C105.973 251.591 106.271 251.293 106.271 250.926V230.622C106.271 230.255 105.973 229.957 105.606 229.957Z" fill="url(#paint8_linear_5_33526)"/>
<path d="M101.949 229.957V227.244" stroke="#13E874" stroke-width="0.49" stroke-linecap="round" stroke-linejoin="round"/>
<path d="M101.949 255.021V251.591" stroke="#66FCA5" stroke-width="0.49" stroke-linecap="round" stroke-linejoin="round"/>
<path d="M165.82 224.951H158.506C158.138 224.951 157.841 225.249 157.841 225.616V245.92C157.841 246.287 158.138 246.585 158.506 246.585H165.82C166.187 246.585 166.485 246.287 166.485 245.92V225.616C166.485 225.249 166.187 224.951 165.82 224.951Z" fill="url(#paint9_linear_5_33526)"/>
<path d="M162.163 224.951V222.238" stroke="#F05E56" stroke-width="0.49" stroke-linecap="round" stroke-linejoin="round"/>
<path d="M162.163 250.016V246.585" stroke="#FF8691" stroke-width="0.49" stroke-linecap="round" stroke-linejoin="round"/>
<path d="M406.676 97.2124H399.361C398.994 97.2124 398.696 97.5102 398.696 97.8775V118.181C398.696 118.549 398.994 118.846 399.361 118.846H406.676C407.043 118.846 407.341 118.549 407.341 118.181V97.8775C407.341 97.5102 407.043 97.2124 406.676 97.2124Z" fill="url(#paint10_linear_5_33526)"/>
<path d="M403.019 97.2125V94.4995" stroke="#13E874" stroke-width="0.49" stroke-linecap="round" stroke-linejoin="round"/>
<path d="M403.019 122.26V118.846" stroke="#66FCA5" stroke-width="0.49" stroke-linecap="round" stroke-linejoin="round"/>
<path d="M153.763 222.973H146.449C146.082 222.973 145.784 223.271 145.784 223.638V234.753C145.784 235.12 146.082 235.418 146.449 235.418H153.763C154.131 235.418 154.428 235.12 154.428 234.753V223.638C154.428 223.271 154.131 222.973 153.763 222.973Z" fill="url(#paint11_linear_5_33526)"/>
<path d="M150.124 222.973V220.26" stroke="#F05E56" stroke-width="0.49" stroke-linecap="round" stroke-linejoin="round"/>
<path d="M150.124 238.831V235.4" stroke="#FF8691" stroke-width="0.49" stroke-linecap="round" stroke-linejoin="round"/>
<path d="M274.209 171.549H266.894C266.527 171.549 266.229 171.846 266.229 172.214V186.391C266.229 186.759 266.527 187.056 266.894 187.056H274.209C274.576 187.056 274.874 186.759 274.874 186.391V172.214C274.874 171.846 274.576 171.549 274.209 171.549Z" fill="url(#paint12_linear_5_33526)"/>
<path d="M270.551 171.549V168.836" stroke="#F05E56" stroke-width="0.49" stroke-linecap="round" stroke-linejoin="round"/>
<path d="M270.551 195.336V187.057" stroke="#FF8691" stroke-width="0.49" stroke-linecap="round" stroke-linejoin="round"/>
<path d="M466.89 142.563H459.575C459.208 142.563 458.91 142.861 458.91 143.228V157.406C458.91 157.773 459.208 158.071 459.575 158.071H466.89C467.257 158.071 467.555 157.773 467.555 157.406V143.228C467.555 142.861 467.257 142.563 466.89 142.563Z" fill="url(#paint13_linear_5_33526)"/>
<path d="M463.232 142.563V139.868" stroke="#F05E56" stroke-width="0.49" stroke-linecap="round" stroke-linejoin="round"/>
<path d="M463.232 166.368V158.071" stroke="#FF8691" stroke-width="0.49" stroke-linecap="round" stroke-linejoin="round"/>
<path d="M430.754 79.6917H423.44C423.073 79.6917 422.775 79.9894 422.775 80.3568V84.6276C422.775 84.9949 423.073 85.2927 423.44 85.2927H430.754C431.122 85.2927 431.419 84.9949 431.419 84.6276V80.3568C431.419 79.9894 431.122 79.6917 430.754 79.6917Z" fill="url(#paint14_linear_5_33526)"/>
<path d="M427.115 79.6916V76.9961" stroke="#13E874" stroke-width="0.49" stroke-linecap="round" stroke-linejoin="round"/>
<path d="M427.115 93.5893V85.2927" stroke="#66FCA5" stroke-width="0.49" stroke-linecap="round" stroke-linejoin="round"/>
<path d="M418.715 83.9451H411.401C411.033 83.9451 410.736 84.2429 410.736 84.6102V98.7878C410.736 99.1551 411.033 99.4529 411.401 99.4529H418.715C419.082 99.4529 419.38 99.1551 419.38 98.7878V84.6102C419.38 84.2429 419.082 83.9451 418.715 83.9451Z" fill="url(#paint15_linear_5_33526)"/>
<path d="M415.058 83.945V81.2495" stroke="#13E874" stroke-width="0.49" stroke-linecap="round" stroke-linejoin="round"/>
<path d="M415.058 107.749V99.4529" stroke="#66FCA5" stroke-width="0.49" stroke-linecap="round" stroke-linejoin="round"/>
<path d="M394.637 116.676H387.322C386.955 116.676 386.657 116.974 386.657 117.341V124.903C386.657 125.27 386.955 125.568 387.322 125.568H394.637C395.004 125.568 395.301 125.27 395.301 124.903V117.341C395.301 116.974 395.004 116.676 394.637 116.676Z" fill="url(#paint16_linear_5_33526)"/>
<path d="M390.979 116.676V113.98" stroke="#13E874" stroke-width="0.49" stroke-linecap="round" stroke-linejoin="round"/>
<path d="M390.979 133.864V125.568" stroke="#66FCA5" stroke-width="0.49" stroke-linecap="round" stroke-linejoin="round"/>
<path d="M479.594 157.196H470.949V170.726H479.594V157.196Z" fill="#F05E56"/>
<path d="M475.289 157.196V154.5" stroke="#F05E56" stroke-width="0.49" stroke-linecap="round" stroke-linejoin="round"/>
<path d="M475.289 174.384V170.726" stroke="#FF8691" stroke-width="0.49" stroke-linecap="round" stroke-linejoin="round"/>
<path d="M322.366 172.564H315.051C314.684 172.564 314.386 172.862 314.386 173.229V187.407C314.386 187.774 314.684 188.072 315.051 188.072H322.366C322.733 188.072 323.031 187.774 323.031 187.407V173.229C323.031 172.862 322.733 172.564 322.366 172.564Z" fill="url(#paint17_linear_5_33526)"/>
<path d="M318.726 172.564V169.868" stroke="#13E874" stroke-width="0.49" stroke-linecap="round" stroke-linejoin="round"/>
<path d="M318.726 191.205V188.072" stroke="#66FCA5" stroke-width="0.49" stroke-linecap="round" stroke-linejoin="round"/>
<path d="M141.724 206.59H134.409C134.042 206.59 133.745 206.888 133.745 207.255V223.428C133.745 223.796 134.042 224.093 134.409 224.093H141.724C142.091 224.093 142.389 223.796 142.389 223.428V207.255C142.389 206.888 142.091 206.59 141.724 206.59Z" fill="url(#paint18_linear_5_33526)"/>
<path d="M138.067 206.59V203.877" stroke="#F05E56" stroke-width="0.49" stroke-linecap="round" stroke-linejoin="round"/>
<path d="M138.067 227.192V224.076" stroke="#FF8691" stroke-width="0.49" stroke-linecap="round" stroke-linejoin="round"/>
<path d="M382.597 123.31H375.283C374.915 123.31 374.618 123.608 374.618 123.975V138.153C374.618 138.52 374.915 138.818 375.283 138.818H382.597C382.964 138.818 383.262 138.52 383.262 138.153V123.975C383.262 123.608 382.964 123.31 382.597 123.31Z" fill="url(#paint19_linear_5_33526)"/>
<path d="M378.94 123.31V120.614" stroke="#F05E56" stroke-width="0.49" stroke-linecap="round" stroke-linejoin="round"/>
<path d="M378.94 141.933V138.818" stroke="#FF8691" stroke-width="0.49" stroke-linecap="round" stroke-linejoin="round"/>
<path d="M189.899 258.26H182.584C182.217 258.26 181.919 258.558 181.919 258.925V273.102C181.919 273.47 182.217 273.768 182.584 273.768H189.899C190.266 273.768 190.564 273.47 190.564 273.102V258.925C190.564 258.558 190.266 258.26 189.899 258.26Z" fill="url(#paint20_linear_5_33526)"/>
<path d="M186.241 258.26V255.547" stroke="#13E874" stroke-width="0.49" stroke-linecap="round" stroke-linejoin="round"/>
<path d="M186.241 290.431V273.768" stroke="#66FCA5" stroke-width="0.49" stroke-linecap="round" stroke-linejoin="round"/>
<path d="M201.938 243.837H194.623C194.256 243.837 193.958 244.135 193.958 244.502V258.68C193.958 259.047 194.256 259.345 194.623 259.345H201.938C202.305 259.345 202.603 259.047 202.603 258.68V244.502C202.603 244.135 202.305 243.837 201.938 243.837Z" fill="url(#paint21_linear_5_33526)"/>
<path d="M198.281 243.837V241.142" stroke="#13E874" stroke-width="0.49" stroke-linecap="round" stroke-linejoin="round"/>
<path d="M198.281 262.46V259.345" stroke="#66FCA5" stroke-width="0.49" stroke-linecap="round" stroke-linejoin="round"/>
<path d="M81.5102 266.381H74.1956C73.8284 266.381 73.5306 266.679 73.5306 267.046V281.224C73.5306 281.591 73.8284 281.889 74.1956 281.889H81.5102C81.8774 281.889 82.1751 281.591 82.1751 281.224V267.046C82.1751 266.679 81.8774 266.381 81.5102 266.381Z" fill="url(#paint22_linear_5_33526)"/>
<path d="M77.8529 266.381V263.668" stroke="#13E874" stroke-width="0.49" stroke-linecap="round" stroke-linejoin="round"/>
<path d="M77.8529 285.005V281.872" stroke="#66FCA5" stroke-width="0.49" stroke-linecap="round" stroke-linejoin="round"/>
<path d="M213.977 214.099H206.663C206.296 214.099 205.998 214.397 205.998 214.764V243.295C205.998 243.662 206.296 243.96 206.663 243.96H213.977C214.345 243.96 214.642 243.662 214.642 243.295V214.764C214.642 214.397 214.345 214.099 213.977 214.099Z" fill="url(#paint23_linear_5_33526)"/>
<path d="M210.338 214.099V211.404" stroke="#13E874" stroke-width="0.49" stroke-linecap="round" stroke-linejoin="round"/>
<path d="M210.338 247.093V243.977" stroke="#66FCA5" stroke-width="0.49" stroke-linecap="round" stroke-linejoin="round"/>
<path d="M442.811 85.6252H435.497C435.129 85.6252 434.832 85.923 434.832 86.2904V120.527C434.832 120.894 435.129 121.192 435.497 121.192H442.811C443.178 121.192 443.476 120.894 443.476 120.527V86.2904C443.476 85.923 443.178 85.6252 442.811 85.6252Z" fill="url(#paint24_linear_5_33526)"/>
<path d="M439.154 85.6254V82.9124" stroke="#F05E56" stroke-width="0.49" stroke-linecap="round" stroke-linejoin="round"/>
<path d="M439.154 124.307V121.192" stroke="#FF8691" stroke-width="0.49" stroke-linecap="round" stroke-linejoin="round"/>
<path d="M93.5495 250.996H86.2349C85.8677 250.996 85.5699 251.294 85.5699 251.661V266.556C85.5699 266.924 85.8677 267.221 86.2349 267.221H93.5495C93.9167 267.221 94.2144 266.924 94.2144 266.556V251.661C94.2144 251.294 93.9167 250.996 93.5495 250.996Z" fill="url(#paint25_linear_5_33526)"/>
<path d="M89.9097 250.996V248.3" stroke="#13E874" stroke-width="0.49" stroke-linecap="round" stroke-linejoin="round"/>
<path d="M89.9097 274.327V267.221" stroke="#66FCA5" stroke-width="0.49" stroke-linecap="round" stroke-linejoin="round"/>
<path d="M370.54 108.379H363.226C362.859 108.379 362.561 108.677 362.561 109.045V123.222C362.561 123.589 362.859 123.887 363.226 123.887H370.54C370.908 123.887 371.205 123.589 371.205 123.222V109.045C371.205 108.677 370.908 108.379 370.54 108.379Z" fill="url(#paint26_linear_5_33526)"/>
<path d="M366.901 108.38V105.684" stroke="#F05E56" stroke-width="0.49" stroke-linecap="round" stroke-linejoin="round"/>
<path d="M366.901 127.003V123.887" stroke="#FF8691" stroke-width="0.49" stroke-linecap="round" stroke-linejoin="round"/>
<path d="M177.859 243.627H170.545C170.178 243.627 169.88 243.925 169.88 244.292V258.47C169.88 258.837 170.178 259.135 170.545 259.135H177.859C178.227 259.135 178.524 258.837 178.524 258.47V244.292C178.524 243.925 178.227 243.627 177.859 243.627Z" fill="url(#paint27_linear_5_33526)"/>
<path d="M174.202 243.627V240.931" stroke="#F05E56" stroke-width="0.49" stroke-linecap="round" stroke-linejoin="round"/>
<path d="M174.202 262.25V259.135" stroke="#FF8691" stroke-width="0.49" stroke-linecap="round" stroke-linejoin="round"/>
<path d="M358.501 102.288H351.187C350.819 102.288 350.522 102.586 350.522 102.953V107.452C350.522 107.819 350.819 108.117 351.187 108.117H358.501C358.868 108.117 359.166 107.819 359.166 107.452V102.953C359.166 102.586 358.868 102.288 358.501 102.288Z" fill="url(#paint28_linear_5_33526)"/>
<path d="M354.844 102.288V90.4563" stroke="#F05E56" stroke-width="0.49" stroke-linecap="round" stroke-linejoin="round"/>
<path d="M354.844 111.25V108.117" stroke="#FF8691" stroke-width="0.49" stroke-linecap="round" stroke-linejoin="round"/>
<path d="M129.685 206.66H122.37C122.003 206.66 121.705 206.958 121.705 207.325V211.824C121.705 212.191 122.003 212.489 122.37 212.489H129.685C130.052 212.489 130.35 212.191 130.35 211.824V207.325C130.35 206.958 130.052 206.66 129.685 206.66Z" fill="url(#paint29_linear_5_33526)"/>
<path d="M126.027 206.66V194.845" stroke="#13E874" stroke-width="0.49" stroke-linecap="round" stroke-linejoin="round"/>
<path d="M126.027 215.622V212.506" stroke="#66FCA5" stroke-width="0.49" stroke-linecap="round" stroke-linejoin="round"/>
<path d="M286.248 185.831H278.933C278.566 185.831 278.268 186.129 278.268 186.496V204.105C278.268 204.472 278.566 204.77 278.933 204.77H286.248C286.615 204.77 286.913 204.472 286.913 204.105V186.496C286.913 186.129 286.615 185.831 286.248 185.831Z" fill="url(#paint30_linear_5_33526)"/>
<path d="M282.591 185.831V175.767" stroke="#F05E56" stroke-width="0.49" stroke-linecap="round" stroke-linejoin="round"/>
<path d="M282.591 209.618V204.752" stroke="#FF8691" stroke-width="0.49" stroke-linecap="round" stroke-linejoin="round"/>
<path d="M117.646 211.596H110.331C109.964 211.596 109.666 211.894 109.666 212.261V229.869C109.666 230.237 109.964 230.534 110.331 230.534H117.646C118.013 230.534 118.311 230.237 118.311 229.869V212.261C118.311 211.894 118.013 211.596 117.646 211.596Z" fill="url(#paint31_linear_5_33526)"/>
<path d="M113.988 211.596V201.532" stroke="#13E874" stroke-width="0.49" stroke-linecap="round" stroke-linejoin="round"/>
<path d="M113.988 235.401V230.535" stroke="#66FCA5" stroke-width="0.49" stroke-linecap="round" stroke-linejoin="round"/>
<path d="M298.287 203.247H290.973C290.605 203.247 290.308 203.545 290.308 203.912V217.792C290.308 218.16 290.605 218.457 290.973 218.457H298.287C298.655 218.457 298.952 218.16 298.952 217.792V203.912C298.952 203.545 298.655 203.247 298.287 203.247Z" fill="url(#paint32_linear_5_33526)"/>
<path d="M294.63 203.247V193.2" stroke="#13E874" stroke-width="0.49" stroke-linecap="round" stroke-linejoin="round"/>
<path d="M294.63 232.32V218.475" stroke="#66FCA5" stroke-width="0.49" stroke-linecap="round" stroke-linejoin="round"/>
<path d="M490.986 168.135H483.671C483.304 168.135 483.006 168.433 483.006 168.801V176.345C483.006 176.712 483.304 177.01 483.671 177.01H490.986C491.353 177.01 491.651 176.712 491.651 176.345V168.801C491.651 168.433 491.353 168.135 490.986 168.135Z" fill="url(#paint33_linear_5_33526)"/>
<path d="M310.327 187.547H303.012C302.645 187.547 302.347 187.844 302.347 188.212V207.728C302.347 208.095 302.645 208.393 303.012 208.393H310.327C310.694 208.393 310.991 208.095 310.991 207.728V188.212C310.991 187.844 310.694 187.547 310.327 187.547Z" fill="url(#paint34_linear_5_33526)"/>
<path d="M306.669 187.547V183.118" stroke="#13E874" stroke-width="0.49" stroke-linecap="round" stroke-linejoin="round"/>
<path d="M306.669 222.238V208.393" stroke="#66FCA5" stroke-width="0.49" stroke-linecap="round" stroke-linejoin="round"/>
<path style="mix-blend-mode:screen" opacity="0.5" d="M398.338 238.988C411.247 181.69 375.274 124.773 317.99 111.86C260.706 98.9475 203.802 134.929 190.893 192.227C177.983 249.526 213.956 306.443 271.24 319.356C328.525 332.268 385.428 296.287 398.338 238.988Z" fill="url(#paint35_radial_5_33526)"/>
<path style="mix-blend-mode:screen" opacity="0.5" d="M350.936 174.513C364.784 117.434 329.749 59.9344 272.685 46.0834C215.62 32.2324 158.134 67.2754 144.286 124.354C130.439 181.433 165.473 238.933 222.538 252.784C279.603 266.635 337.089 231.592 350.936 174.513Z" fill="url(#paint36_radial_5_33526)"/>
<path style="mix-blend-mode:screen" d="M354.459 212.174C413.035 212.174 460.52 164.677 460.52 106.087C460.52 47.4963 413.035 -0.000488281 354.459 -0.000488281C295.883 -0.000488281 248.398 47.4963 248.398 106.087C248.398 164.677 295.883 212.174 354.459 212.174Z" fill="url(#paint37_radial_5_33526)"/>
<defs>
<linearGradient id="paint0_linear_5_33526" x1="222.377" y1="168.836" x2="222.377" y2="212.104" gradientUnits="userSpaceOnUse">
<stop offset="0.01" stop-color="#10F06F"/>
<stop offset="0.18" stop-color="#18F174"/>
<stop offset="0.45" stop-color="#2FF581"/>
<stop offset="0.78" stop-color="#53FB97"/>
<stop offset="1" stop-color="#6FFFA7"/>
</linearGradient>
<linearGradient id="paint1_linear_5_33526" x1="234.416" y1="147.062" x2="234.416" y2="178.585" gradientUnits="userSpaceOnUse">
<stop offset="0.01" stop-color="#10F06F"/>
<stop offset="0.18" stop-color="#18F174"/>
<stop offset="0.45" stop-color="#2FF581"/>
<stop offset="0.78" stop-color="#53FB97"/>
<stop offset="1" stop-color="#6FFFA7"/>
</linearGradient>
<linearGradient id="paint2_linear_5_33526" x1="330.748" y1="141.951" x2="330.748" y2="173.474" gradientUnits="userSpaceOnUse">
<stop offset="0.01" stop-color="#10F06F"/>
<stop offset="0.18" stop-color="#18F174"/>
<stop offset="0.45" stop-color="#2FF581"/>
<stop offset="0.78" stop-color="#53FB97"/>
<stop offset="1" stop-color="#6FFFA7"/>
</linearGradient>
<linearGradient id="paint3_linear_5_33526" x1="342.262" y1="109.01" x2="342.262" y2="140.515" gradientUnits="userSpaceOnUse">
<stop offset="0.01" stop-color="#10F06F"/>
<stop offset="0.18" stop-color="#18F174"/>
<stop offset="0.45" stop-color="#2FF581"/>
<stop offset="0.78" stop-color="#53FB97"/>
<stop offset="1" stop-color="#6FFFA7"/>
</linearGradient>
<linearGradient id="paint4_linear_5_33526" x1="246.455" y1="145.469" x2="246.455" y2="149.582" gradientUnits="userSpaceOnUse">
<stop offset="0.01" stop-color="#10F06F"/>
<stop offset="0.18" stop-color="#18F174"/>
<stop offset="0.45" stop-color="#2FF581"/>
<stop offset="0.78" stop-color="#53FB97"/>
<stop offset="1" stop-color="#6FFFA7"/>
</linearGradient>
<linearGradient id="paint5_linear_5_33526" x1="258.495" y1="171.409" x2="258.495" y2="149.757" gradientUnits="userSpaceOnUse">
<stop stop-color="#FF8893"/>
<stop offset="0.19" stop-color="#FB717C"/>
<stop offset="0.53" stop-color="#F54D58"/>
<stop offset="0.81" stop-color="#F13641"/>
<stop offset="0.99" stop-color="#F02E39"/>
</linearGradient>
<linearGradient id="paint6_linear_5_33526" x1="451.193" y1="143.176" x2="451.193" y2="121.542" gradientUnits="userSpaceOnUse">
<stop stop-color="#FF8893"/>
<stop offset="0.19" stop-color="#FB717C"/>
<stop offset="0.53" stop-color="#F54D58"/>
<stop offset="0.81" stop-color="#F13641"/>
<stop offset="0.99" stop-color="#F02E39"/>
</linearGradient>
<linearGradient id="paint7_linear_5_33526" x1="65.8136" y1="281.154" x2="65.8136" y2="302.788" gradientUnits="userSpaceOnUse">
<stop offset="0.01" stop-color="#10F06F"/>
<stop offset="0.18" stop-color="#18F174"/>
<stop offset="0.45" stop-color="#2FF581"/>
<stop offset="0.78" stop-color="#53FB97"/>
<stop offset="1" stop-color="#6FFFA7"/>
</linearGradient>
<linearGradient id="paint8_linear_5_33526" x1="101.931" y1="229.957" x2="101.931" y2="251.591" gradientUnits="userSpaceOnUse">
<stop offset="0.01" stop-color="#10F06F"/>
<stop offset="0.18" stop-color="#18F174"/>
<stop offset="0.45" stop-color="#2FF581"/>
<stop offset="0.78" stop-color="#53FB97"/>
<stop offset="1" stop-color="#6FFFA7"/>
</linearGradient>
<linearGradient id="paint9_linear_5_33526" x1="162.145" y1="246.585" x2="162.145" y2="224.951" gradientUnits="userSpaceOnUse">
<stop stop-color="#FF8893"/>
<stop offset="0.19" stop-color="#FB717C"/>
<stop offset="0.53" stop-color="#F54D58"/>
<stop offset="0.81" stop-color="#F13641"/>
<stop offset="0.99" stop-color="#F02E39"/>
</linearGradient>
<linearGradient id="paint10_linear_5_33526" x1="403.019" y1="97.2124" x2="403.019" y2="118.846" gradientUnits="userSpaceOnUse">
<stop offset="0.01" stop-color="#10F06F"/>
<stop offset="0.18" stop-color="#18F174"/>
<stop offset="0.45" stop-color="#2FF581"/>
<stop offset="0.78" stop-color="#53FB97"/>
<stop offset="1" stop-color="#6FFFA7"/>
</linearGradient>
<linearGradient id="paint11_linear_5_33526" x1="150.106" y1="235.4" x2="150.106" y2="222.973" gradientUnits="userSpaceOnUse">
<stop stop-color="#FF8893"/>
<stop offset="0.19" stop-color="#FB717C"/>
<stop offset="0.53" stop-color="#F54D58"/>
<stop offset="0.81" stop-color="#F13641"/>
<stop offset="0.99" stop-color="#F02E39"/>
</linearGradient>
<linearGradient id="paint12_linear_5_33526" x1="270.534" y1="187.056" x2="270.534" y2="171.549" gradientUnits="userSpaceOnUse">
<stop stop-color="#FF8893"/>
<stop offset="0.19" stop-color="#FB717C"/>
<stop offset="0.53" stop-color="#F54D58"/>
<stop offset="0.81" stop-color="#F13641"/>
<stop offset="0.99" stop-color="#F02E39"/>
</linearGradient>
<linearGradient id="paint13_linear_5_33526" x1="463.232" y1="158.071" x2="463.232" y2="142.563" gradientUnits="userSpaceOnUse">
<stop stop-color="#FF8893"/>
<stop offset="0.19" stop-color="#FB717C"/>
<stop offset="0.53" stop-color="#F54D58"/>
<stop offset="0.81" stop-color="#F13641"/>
<stop offset="0.99" stop-color="#F02E39"/>
</linearGradient>
<linearGradient id="paint14_linear_5_33526" x1="427.097" y1="79.6917" x2="427.097" y2="85.2927" gradientUnits="userSpaceOnUse">
<stop offset="0.01" stop-color="#10F06F"/>
<stop offset="0.18" stop-color="#18F174"/>
<stop offset="0.45" stop-color="#2FF581"/>
<stop offset="0.78" stop-color="#53FB97"/>
<stop offset="1" stop-color="#6FFFA7"/>
</linearGradient>
<linearGradient id="paint15_linear_5_33526" x1="415.058" y1="83.9451" x2="415.058" y2="99.4529" gradientUnits="userSpaceOnUse">
<stop offset="0.01" stop-color="#10F06F"/>
<stop offset="0.18" stop-color="#18F174"/>
<stop offset="0.45" stop-color="#2FF581"/>
<stop offset="0.78" stop-color="#53FB97"/>
<stop offset="1" stop-color="#6FFFA7"/>
</linearGradient>
<linearGradient id="paint16_linear_5_33526" x1="390.979" y1="116.676" x2="390.979" y2="125.568" gradientUnits="userSpaceOnUse">
<stop offset="0.01" stop-color="#10F06F"/>
<stop offset="0.18" stop-color="#18F174"/>
<stop offset="0.45" stop-color="#2FF581"/>
<stop offset="0.78" stop-color="#53FB97"/>
<stop offset="1" stop-color="#6FFFA7"/>
</linearGradient>
<linearGradient id="paint17_linear_5_33526" x1="318.709" y1="172.564" x2="318.709" y2="188.072" gradientUnits="userSpaceOnUse">
<stop offset="0.01" stop-color="#10F06F"/>
<stop offset="0.18" stop-color="#18F174"/>
<stop offset="0.45" stop-color="#2FF581"/>
<stop offset="0.78" stop-color="#53FB97"/>
<stop offset="1" stop-color="#6FFFA7"/>
</linearGradient>
<linearGradient id="paint18_linear_5_33526" x1="138.067" y1="224.076" x2="138.067" y2="206.59" gradientUnits="userSpaceOnUse">
<stop stop-color="#FF8893"/>
<stop offset="0.19" stop-color="#FB717C"/>
<stop offset="0.53" stop-color="#F54D58"/>
<stop offset="0.81" stop-color="#F13641"/>
<stop offset="0.99" stop-color="#F02E39"/>
</linearGradient>
<linearGradient id="paint19_linear_5_33526" x1="378.922" y1="138.818" x2="378.922" y2="123.31" gradientUnits="userSpaceOnUse">
<stop stop-color="#FF8893"/>
<stop offset="0.19" stop-color="#FB717C"/>
<stop offset="0.53" stop-color="#F54D58"/>
<stop offset="0.81" stop-color="#F13641"/>
<stop offset="0.99" stop-color="#F02E39"/>
</linearGradient>
<linearGradient id="paint20_linear_5_33526" x1="186.241" y1="258.26" x2="186.241" y2="273.768" gradientUnits="userSpaceOnUse">
<stop offset="0.01" stop-color="#10F06F"/>
<stop offset="0.18" stop-color="#18F174"/>
<stop offset="0.45" stop-color="#2FF581"/>
<stop offset="0.78" stop-color="#53FB97"/>
<stop offset="1" stop-color="#6FFFA7"/>
</linearGradient>
<linearGradient id="paint21_linear_5_33526" x1="198.281" y1="243.837" x2="198.281" y2="259.345" gradientUnits="userSpaceOnUse">
<stop offset="0.01" stop-color="#10F06F"/>
<stop offset="0.18" stop-color="#18F174"/>
<stop offset="0.45" stop-color="#2FF581"/>
<stop offset="0.78" stop-color="#53FB97"/>
<stop offset="1" stop-color="#6FFFA7"/>
</linearGradient>
<linearGradient id="paint22_linear_5_33526" x1="77.8529" y1="266.381" x2="77.8529" y2="281.871" gradientUnits="userSpaceOnUse">
<stop offset="0.01" stop-color="#10F06F"/>
<stop offset="0.18" stop-color="#18F174"/>
<stop offset="0.45" stop-color="#2FF581"/>
<stop offset="0.78" stop-color="#53FB97"/>
<stop offset="1" stop-color="#6FFFA7"/>
</linearGradient>
<linearGradient id="paint23_linear_5_33526" x1="210.32" y1="214.099" x2="210.32" y2="243.977" gradientUnits="userSpaceOnUse">
<stop offset="0.01" stop-color="#10F06F"/>
<stop offset="0.18" stop-color="#18F174"/>
<stop offset="0.45" stop-color="#2FF581"/>
<stop offset="0.78" stop-color="#53FB97"/>
<stop offset="1" stop-color="#6FFFA7"/>
</linearGradient>
<linearGradient id="paint24_linear_5_33526" x1="439.136" y1="121.192" x2="439.136" y2="85.6252" gradientUnits="userSpaceOnUse">
<stop stop-color="#FF8893"/>
<stop offset="0.19" stop-color="#FB717C"/>
<stop offset="0.53" stop-color="#F54D58"/>
<stop offset="0.81" stop-color="#F13641"/>
<stop offset="0.99" stop-color="#F02E39"/>
</linearGradient>
<linearGradient id="paint25_linear_5_33526" x1="89.8922" y1="250.996" x2="89.8922" y2="267.221" gradientUnits="userSpaceOnUse">
<stop offset="0.01" stop-color="#10F06F"/>
<stop offset="0.18" stop-color="#18F174"/>
<stop offset="0.45" stop-color="#2FF581"/>
<stop offset="0.78" stop-color="#53FB97"/>
<stop offset="1" stop-color="#6FFFA7"/>
</linearGradient>
<linearGradient id="paint26_linear_5_33526" x1="366.883" y1="123.887" x2="366.883" y2="108.379" gradientUnits="userSpaceOnUse">
<stop stop-color="#FF8893"/>
<stop offset="0.19" stop-color="#FB717C"/>
<stop offset="0.53" stop-color="#F54D58"/>
<stop offset="0.81" stop-color="#F13641"/>
<stop offset="0.99" stop-color="#F02E39"/>
</linearGradient>
<linearGradient id="paint27_linear_5_33526" x1="174.202" y1="259.135" x2="174.202" y2="243.627" gradientUnits="userSpaceOnUse">
<stop stop-color="#FF8893"/>
<stop offset="0.19" stop-color="#FB717C"/>
<stop offset="0.53" stop-color="#F54D58"/>
<stop offset="0.81" stop-color="#F13641"/>
<stop offset="0.99" stop-color="#F02E39"/>
</linearGradient>
<linearGradient id="paint28_linear_5_33526" x1="354.844" y1="108.117" x2="354.844" y2="102.288" gradientUnits="userSpaceOnUse">
<stop stop-color="#FF8893"/>
<stop offset="0.19" stop-color="#FB717C"/>
<stop offset="0.53" stop-color="#F54D58"/>
<stop offset="0.81" stop-color="#F13641"/>
<stop offset="0.99" stop-color="#F02E39"/>
</linearGradient>
<linearGradient id="paint29_linear_5_33526" x1="126.027" y1="206.66" x2="126.027" y2="212.506" gradientUnits="userSpaceOnUse">
<stop offset="0.01" stop-color="#10F06F"/>
<stop offset="0.18" stop-color="#18F174"/>
<stop offset="0.45" stop-color="#2FF581"/>
<stop offset="0.78" stop-color="#53FB97"/>
<stop offset="1" stop-color="#6FFFA7"/>
</linearGradient>
<linearGradient id="paint30_linear_5_33526" x1="282.591" y1="204.752" x2="282.591" y2="185.831" gradientUnits="userSpaceOnUse">
<stop stop-color="#FF8893"/>
<stop offset="0.19" stop-color="#FB717C"/>
<stop offset="0.53" stop-color="#F54D58"/>
<stop offset="0.81" stop-color="#F13641"/>
<stop offset="0.99" stop-color="#F02E39"/>
</linearGradient>
<linearGradient id="paint31_linear_5_33526" x1="113.988" y1="211.596" x2="113.988" y2="230.534" gradientUnits="userSpaceOnUse">
<stop offset="0.01" stop-color="#10F06F"/>
<stop offset="0.18" stop-color="#18F174"/>
<stop offset="0.45" stop-color="#2FF581"/>
<stop offset="0.78" stop-color="#53FB97"/>
<stop offset="1" stop-color="#6FFFA7"/>
</linearGradient>
<linearGradient id="paint32_linear_5_33526" x1="294.63" y1="203.247" x2="294.63" y2="218.475" gradientUnits="userSpaceOnUse">
<stop offset="0.01" stop-color="#10F06F"/>
<stop offset="0.18" stop-color="#18F174"/>
<stop offset="0.45" stop-color="#2FF581"/>
<stop offset="0.78" stop-color="#53FB97"/>
<stop offset="1" stop-color="#6FFFA7"/>
</linearGradient>
<linearGradient id="paint33_linear_5_33526" x1="487.311" y1="168.135" x2="487.311" y2="177.01" gradientUnits="userSpaceOnUse">
<stop offset="0.01" stop-color="#10F06F"/>
<stop offset="0.18" stop-color="#18F174"/>
<stop offset="0.45" stop-color="#2FF581"/>
<stop offset="0.78" stop-color="#53FB97"/>
<stop offset="1" stop-color="#6FFFA7"/>
</linearGradient>
<linearGradient id="paint34_linear_5_33526" x1="306.669" y1="187.547" x2="306.669" y2="208.393" gradientUnits="userSpaceOnUse">
<stop offset="0.01" stop-color="#10F06F"/>
<stop offset="0.18" stop-color="#18F174"/>
<stop offset="0.45" stop-color="#2FF581"/>
<stop offset="0.78" stop-color="#53FB97"/>
<stop offset="1" stop-color="#6FFFA7"/>
</linearGradient>
<radialGradient id="paint35_radial_5_33526" cx="0" cy="0" r="1" gradientUnits="userSpaceOnUse" gradientTransform="translate(294.6 215.624) scale(106.324 106.35)">
<stop stop-color="#90FF90"/>
<stop offset="0.01" stop-color="#90FF90" stop-opacity="0.96"/>
<stop offset="0.07" stop-color="#90FF90" stop-opacity="0.76"/>
<stop offset="0.13" stop-color="#90FF90" stop-opacity="0.58"/>
<stop offset="0.19" stop-color="#90FF90" stop-opacity="0.43"/>
<stop offset="0.26" stop-color="#90FF90" stop-opacity="0.29"/>
<stop offset="0.33" stop-color="#90FF90" stop-opacity="0.19"/>
<stop offset="0.4" stop-color="#90FF90" stop-opacity="0.1"/>
<stop offset="0.49" stop-color="#90FF90" stop-opacity="0.04"/>
<stop offset="0.59" stop-color="#90FF90" stop-opacity="0.01"/>
<stop offset="0.74" stop-color="#90FF90" stop-opacity="0"/>
</radialGradient>
<radialGradient id="paint36_radial_5_33526" cx="0" cy="0" r="1" gradientUnits="userSpaceOnUse" gradientTransform="translate(247.595 149.454) scale(106.324 106.35)">
<stop stop-color="#90FF90"/>
<stop offset="0.01" stop-color="#90FF90" stop-opacity="0.96"/>
<stop offset="0.07" stop-color="#90FF90" stop-opacity="0.76"/>
<stop offset="0.13" stop-color="#90FF90" stop-opacity="0.58"/>
<stop offset="0.19" stop-color="#90FF90" stop-opacity="0.43"/>
<stop offset="0.26" stop-color="#90FF90" stop-opacity="0.29"/>
<stop offset="0.33" stop-color="#90FF90" stop-opacity="0.19"/>
<stop offset="0.4" stop-color="#90FF90" stop-opacity="0.1"/>
<stop offset="0.49" stop-color="#90FF90" stop-opacity="0.04"/>
<stop offset="0.59" stop-color="#90FF90" stop-opacity="0.01"/>
<stop offset="0.74" stop-color="#90FF90" stop-opacity="0"/>
</radialGradient>
<radialGradient id="paint37_radial_5_33526" cx="0" cy="0" r="1" gradientUnits="userSpaceOnUse" gradientTransform="translate(354.459 106.087) scale(106.061 106.087)">
<stop stop-color="#EE2A7B"/>
<stop offset="0.01" stop-color="#EE2A7B" stop-opacity="0.95"/>
<stop offset="0.07" stop-color="#EE2A7B" stop-opacity="0.73"/>
<stop offset="0.13" stop-color="#EE2A7B" stop-opacity="0.53"/>
<stop offset="0.19" stop-color="#EE2A7B" stop-opacity="0.37"/>
<stop offset="0.26" stop-color="#EE2A7B" stop-opacity="0.24"/>
<stop offset="0.33" stop-color="#EE2A7B" stop-opacity="0.13"/>
<stop offset="0.39" stop-color="#EE2A7B" stop-opacity="0.06"/>
<stop offset="0.47" stop-color="#EE2A7B" stop-opacity="0.01"/>
<stop offset="0.56" stop-color="#EE2A7B" stop-opacity="0"/>
</radialGradient>
</defs>
</svg>
