<svg width="32" height="24" viewBox="0 0 32 24" fill="none" xmlns="http://www.w3.org/2000/svg">
<g clip-path="url(#clip0_309_79)">
<path fill-rule="evenodd" clip-rule="evenodd" d="M0 0H45.6V1.8469H0V0ZM0 3.69375H45.6V5.54065H0V3.69375ZM0 7.3828H45.6V9.23435H0V7.3828ZM0 11.0766H45.6V12.9234H0V11.0766ZM0 14.7703H45.6V16.6172H0V14.7703ZM0 18.4594H45.6V20.3062H0V18.4594ZM0 22.1531H45.6V24H0V22.1531Z" fill="#BD3D44"/>
<path fill-rule="evenodd" clip-rule="evenodd" d="M0 1.84692H45.6V3.69377H0V1.84692ZM0 5.54062H45.6V7.38282H0V5.54062ZM0 9.22972H45.6V11.0766H0V9.22972ZM0 12.9235H45.6V14.7703H0V12.9235ZM0 16.6172H45.6V18.4641H0V16.6172ZM0 20.3063H45.6V22.1532H0V20.3063Z" fill="white"/>
<path fill-rule="evenodd" clip-rule="evenodd" d="M0 0H18.239V12.9234H0V0Z" fill="#192F5D"/>
<path fill-rule="evenodd" clip-rule="evenodd" d="M1.51853 0.553162L1.68728 1.06401H2.22168L1.79038 1.37811L1.95448 1.89371L1.51853 1.57496L1.08728 1.88901L1.25133 1.37811L0.81543 1.06401H1.35918L1.51853 0.553162ZM4.56073 0.553162L4.72478 1.06401H5.26383L4.82788 1.37811L4.99198 1.89371L4.56073 1.57496L4.12478 1.88901L4.28883 1.37811L3.85758 1.06401H4.39198L4.56073 0.553162ZM7.59823 0.553162L7.76698 1.06406H8.29668L7.86543 1.37816L8.02943 1.89376L7.59353 1.57501L7.16228 1.88906L7.32633 1.37816L6.89038 1.06406H7.42948L7.59823 0.553162ZM10.6404 0.553162L10.8044 1.06406H11.3435L10.9076 1.37816L11.0763 1.89376L10.6404 1.57501L10.2045 1.88906L10.3732 1.37816L9.93728 1.06406H10.4717L10.6404 0.553162ZM13.6779 0.553162L13.8467 1.06406H14.381L13.9498 1.37816L14.1138 1.89376L13.6779 1.57501L13.2466 1.88906L13.4107 1.37816L12.9795 1.06406H13.5138L13.6779 0.553162ZM16.7201 0.553162L16.8841 1.06406H17.4232L16.9873 1.37816L17.156 1.89376L16.7201 1.57501L16.2841 1.88906L16.4529 1.37816L16.017 1.06406H16.556L16.7201 0.553162ZM3.04198 1.84681L3.20603 2.35781H3.74508L3.30913 2.67181L3.46853 3.18281L3.04663 2.86871L2.61073 3.18276L2.76538 2.67186L2.34353 2.35776H2.87793L3.04198 1.84681ZM6.07948 1.84681L6.24823 2.35781H6.78258L6.34663 2.67181L6.51543 3.18281L6.07943 2.86871L5.64353 3.18276L5.81228 2.67186L5.37633 2.35776H5.91538L6.07948 1.84681ZM9.12168 1.84681L9.28568 2.35781H9.82478L9.38883 2.67181L9.55288 3.18281L9.12163 2.86871L8.68573 3.18276L8.84978 2.67191L8.41853 2.35781H8.95293L9.12168 1.84681ZM12.1592 1.84681L12.3279 2.35781H12.8623L12.4263 2.67181L12.5951 3.18281L12.1591 2.86871L11.7279 3.18276L11.892 2.67186L11.456 2.35776H11.9998L12.1592 1.84681ZM15.2013 1.84681L15.3654 2.35781H15.9045L15.4685 2.67181L15.6326 3.18281L15.2013 2.86871L14.7654 3.18276L14.9295 2.67186L14.4982 2.35776H15.0326L15.2013 1.84681ZM1.51853 3.13601L1.68728 3.65631H2.22168L1.79038 3.97036L1.95448 4.48131L1.51853 4.16256L1.08728 4.48131L1.25133 3.96566L0.81543 3.65166H1.35918L1.51853 3.13601ZM4.56073 3.13601L4.72478 3.65151H5.26383L4.82788 3.96556L4.99198 4.47656L4.56073 4.15776L4.12478 4.47651L4.28883 3.96091L3.85758 3.64686H4.39198L4.56073 3.13601ZM7.59823 3.13601L7.76698 3.65161H8.29668L7.86543 3.96566L8.02943 4.47666L7.59353 4.15786L7.16228 4.47661L7.32633 3.96101L6.89038 3.64696H7.42948L7.59823 3.13601ZM10.6404 3.13601L10.8044 3.65161H11.3435L10.9076 3.96566L11.0763 4.47666L10.6404 4.15786L10.2045 4.47661L10.3732 3.96101L9.93728 3.64696H10.4717L10.6404 3.13601ZM13.6779 3.13601L13.8467 3.65161H14.381L13.9498 3.96561L14.1138 4.47661L13.6779 4.15781L13.2466 4.47656L13.4107 3.96096L12.9795 3.64691H13.5138L13.6779 3.13601ZM16.7201 3.13601L16.8841 3.65161H17.4232L16.9873 3.96566L17.156 4.47666L16.7201 4.15786L16.2841 4.47661L16.4529 3.96101L16.017 3.64696H16.556L16.7201 3.13601ZM3.04198 4.42971L3.20603 4.94066H3.74508L3.30913 5.25466L3.47323 5.77031L3.04198 5.45156L2.60603 5.76561L2.77008 5.25471L2.33883 4.94066H2.87328L3.04198 4.42971ZM6.07948 4.42971L6.24823 4.94066H6.78258L6.34663 5.25466L6.51543 5.77031L6.07943 5.45156L5.64353 5.76561L5.81228 5.25471L5.37633 4.94066H5.91538L6.07948 4.42971ZM9.12168 4.42971L9.28568 4.94066H9.82478L9.38883 5.25466L9.55288 5.77031L9.12163 5.45156L8.68573 5.76561L8.84978 5.25471L8.41853 4.94066H8.95293L9.12168 4.42971ZM12.1592 4.42971L12.3279 4.94066H12.8623L12.431 5.25466L12.5951 5.77031L12.1591 5.45156L11.7279 5.76561L11.892 5.25471L11.456 4.94066H11.9998L12.1592 4.42971ZM15.2013 4.42971L15.3654 4.94066H15.9045L15.4685 5.25466L15.6326 5.77031L15.2013 5.45156L14.7654 5.76561L14.9295 5.25471L14.4982 4.94066H15.0326L15.2013 4.42971ZM1.51853 5.72346L1.68728 6.23441H2.22168L1.79038 6.54841L1.95448 7.06406L1.51853 6.74531L1.08728 7.05936L1.25133 6.54846L0.81543 6.23441H1.35918L1.51853 5.72346ZM4.56073 5.72346L4.72478 6.23441H5.26383L4.82788 6.54841L4.99198 7.05941L4.56073 6.74531L4.12478 7.05936L4.28883 6.54846L3.85758 6.23441H4.39198L4.56073 5.72346ZM7.59823 5.72346L7.76698 6.23441H8.29668L7.86543 6.54841L8.02943 7.06406L7.59353 6.74531L7.16228 7.05936L7.32633 6.54846L6.89038 6.23441H7.42948L7.59823 5.72346ZM10.6404 5.72346L10.8044 6.23441H11.3435L10.9076 6.54841L11.0763 7.06406L10.6404 6.74531L10.2045 7.05936L10.3732 6.54846L9.93728 6.23441H10.4717L10.6404 5.72346ZM13.6779 5.72346L13.8467 6.23441H14.381L13.9498 6.54841L14.1138 7.06406L13.6779 6.74531L13.2466 7.05936L13.4107 6.54846L12.9795 6.23441H13.5138L13.6779 5.72346ZM16.7201 5.72346L16.8841 6.23441H17.4232L16.9873 6.54841L17.156 7.06406L16.7201 6.74531L16.2841 7.05936L16.4529 6.54846L16.017 6.23441H16.556L16.7201 5.72346ZM3.04198 7.01721L3.20603 7.52816H3.74508L3.30913 7.84216L3.47323 8.35316L3.04198 8.03441L2.60603 8.35316L2.77008 7.83751L2.33883 7.52346H2.87328L3.04198 7.01721ZM6.07948 7.01721L6.24823 7.52816H6.78258L6.34663 7.84216L6.51543 8.35316L6.07943 8.03441L5.64353 8.35316L5.81228 7.83751L5.37633 7.52346H5.91538L6.07948 7.01721ZM9.12168 7.01721L9.28568 7.52816H9.82478L9.38883 7.84216L9.55288 8.35316L9.12163 8.03441L8.68573 8.35316L8.84978 7.83751L8.41853 7.52346H8.95293L9.12168 7.01721ZM12.1592 7.01721L12.3279 7.52816H12.8623L12.431 7.84216L12.5951 8.35316L12.1591 8.03441L11.7279 8.35316L11.892 7.83751L11.456 7.52346H11.9998L12.1592 7.01721ZM15.2013 7.01721L15.3654 7.52816H15.9045L15.4685 7.84216L15.6326 8.35316L15.2013 8.03441L14.7654 8.35316L14.9295 7.83751L14.4982 7.52346H15.0326L15.2013 7.01721ZM1.51853 8.30626L1.68728 8.82191H2.22168L1.79038 9.13591L1.95448 9.64221L1.51853 9.32816L1.08728 9.64216L1.25133 9.13126L0.81543 8.81721H1.35918L1.51853 8.30626ZM4.56073 8.30626L4.72478 8.82191H5.26383L4.82788 9.13591L4.99668 9.64221L4.56068 9.32816L4.12478 9.64216L4.29353 9.13126L3.85758 8.81721H4.39198L4.56073 8.30626ZM7.59823 8.30626L7.76698 8.82191H8.29668L7.86543 9.13591L8.02943 9.64221L7.59353 9.32816L7.16228 9.64216L7.32633 9.13126L6.89038 8.81721H7.42948L7.59823 8.30626ZM10.6404 8.30626L10.8044 8.82191H11.3435L10.9076 9.13591L11.0763 9.64221L10.6404 9.32816L10.2045 9.64216L10.3732 9.13126L9.93728 8.81721H10.4717L10.6404 8.30626ZM13.6779 8.30626L13.8467 8.82191H14.381L13.9498 9.13591L14.1138 9.64221L13.6779 9.32816L13.2466 9.64216L13.4107 9.13126L12.9795 8.81721H13.5138L13.6779 8.30626ZM16.7201 8.30626L16.8841 8.82191H17.4232L16.9873 9.13591L17.156 9.64221L16.7201 9.32816L16.2841 9.64216L16.4529 9.13126L16.017 8.81721H16.556L16.7201 8.30626ZM3.04198 9.60001L3.20603 10.111H3.74508L3.30913 10.425L3.47323 10.9407L3.04198 10.6219L2.60603 10.9359L2.77008 10.425L2.33883 10.111H2.87328L3.04198 9.60001ZM6.07948 9.60001L6.24823 10.111H6.78258L6.34663 10.425L6.51543 10.9407L6.07943 10.6219L5.64353 10.9359L5.81228 10.425L5.37633 10.111H5.91538L6.07948 9.60001ZM9.12168 9.60001L9.28568 10.111H9.82478L9.38883 10.425L9.55288 10.9407L9.12163 10.6219L8.68573 10.9359L8.84978 10.425L8.41853 10.111H8.95293L9.12168 9.60001ZM12.1592 9.60001L12.3279 10.111H12.8623L12.431 10.425L12.5951 10.9407L12.1591 10.6219L11.7279 10.9359L11.892 10.425L11.456 10.111H11.9998L12.1592 9.60001ZM15.2013 9.60001L15.3654 10.111H15.9045L15.4685 10.425L15.6326 10.9407L15.2013 10.6219L14.7654 10.9359L14.9295 10.425L14.4982 10.111H15.0326L15.2013 9.60001ZM1.51853 10.8938L1.68728 11.4047H2.22168L1.79038 11.7188L1.95448 12.2297L1.51853 11.9157L1.08728 12.2297L1.25133 11.7141L0.81543 11.4H1.35918L1.51853 10.8938ZM4.56073 10.8938L4.72478 11.4047H5.26383L4.82788 11.7188L4.99668 12.2297L4.56068 11.9157L4.12478 12.2297L4.29353 11.7141L3.85758 11.4H4.39198L4.56073 10.8938ZM7.59823 10.8938L7.76698 11.4047H8.29668L7.87478 11.7188L8.03883 12.2297L7.60288 11.9157L7.17163 12.2297L7.33573 11.7141L6.89978 11.4H7.43883L7.59823 10.8938ZM10.6404 10.8938L10.8044 11.4047H11.3435L10.9076 11.7188L11.0763 12.2297L10.6404 11.9157L10.2045 12.2297L10.3732 11.7141L9.93728 11.4H10.4717L10.6404 10.8938ZM13.6779 10.8938L13.8467 11.4047H14.381L13.9498 11.7188L14.1138 12.2297L13.6779 11.9157L13.2466 12.2297L13.4107 11.7141L12.9795 11.4H13.5138L13.6779 10.8938ZM16.7201 10.8938L16.8841 11.4047H17.4232L16.9873 11.7188L17.156 12.2297L16.7201 11.9157L16.2841 12.2297L16.4529 11.7141L16.017 11.4H16.556L16.7201 10.8938Z" fill="white"/>
</g>
<defs>
<clipPath id="clip0_309_79">
<rect width="32" height="24" fill="white"/>
</clipPath>
</defs>
</svg>
