<svg width="10" height="16" viewBox="0 0 10 16" fill="none" xmlns="http://www.w3.org/2000/svg">
<path d="M0.473536 9.07896L7.26124 15.5486C7.41006 15.6917 7.58712 15.8052 7.7822 15.8827C7.97728 15.9601 8.18652 16 8.39786 16C8.60919 16 8.81844 15.9601 9.01352 15.8827C9.2086 15.8052 9.38566 15.6917 9.53448 15.5486C9.83264 15.2628 10 14.876 10 14.4729C10 14.0698 9.83264 13.6831 9.53448 13.3972L3.86739 7.99559L9.53448 2.59401C9.83264 2.30811 10 1.92138 10 1.51827C10 1.11515 9.83264 0.728418 9.53448 0.442527C9.38489 0.301107 9.20749 0.189223 9.01244 0.113289C8.8174 0.0373544 8.60855 -0.00113499 8.39786 2.56091e-05C8.18717 -0.00113503 7.97832 0.0373543 7.78327 0.113289C7.58823 0.189223 7.41083 0.301107 7.26124 0.442527L0.473536 6.91222C0.323489 7.05407 0.204394 7.22283 0.12312 7.40877C0.0418451 7.59472 7.17378e-07 7.79416 6.99768e-07 7.99559C6.82158e-07 8.19702 0.041845 8.39646 0.12312 8.5824C0.204394 8.76834 0.323489 8.93711 0.473536 9.07896Z" fill="black"/>
</svg>
